<svg width="192" height="72" viewBox="0 0 192 72" fill="none" xmlns="http://www.w3.org/2000/svg">
<path d="M5.7 43.07H6.57C7.15 43.07 7.58 42.99 7.86 42.83C8.16 42.65 8.31 42.37 8.31 41.99V24.38H4.2C3.4 24.38 2.83 24.92 2.49 26C2.17 27.06 2 28.1 1.98 29.12H1.05V23H19.17V29.12H18.21C18.19 28.1 18.01 27.06 17.67 26C17.35 24.92 16.79 24.38 15.99 24.38H11.91V41.99C11.91 42.71 12.48 43.07 13.62 43.07H14.52V44H5.7V43.07ZM22.2677 36.35C22.2477 36.49 22.2377 36.7 22.2377 36.98C22.2377 38.8 22.6677 40.27 23.5277 41.39C24.3877 42.51 25.5277 43.07 26.9477 43.07C28.2677 43.07 29.3477 42.74 30.1877 42.08C31.0277 41.4 31.5777 40.36 31.8377 38.96H32.8277C32.6677 40.54 32.0477 41.83 30.9677 42.83C29.8877 43.81 28.3877 44.3 26.4677 44.3C24.0077 44.3 22.0977 43.67 20.7377 42.41C19.3977 41.13 18.7277 39.31 18.7277 36.95C18.7277 34.67 19.3977 32.88 20.7377 31.58C22.0777 30.26 23.9277 29.6 26.2877 29.6C28.4677 29.6 30.1177 30.16 31.2377 31.28C32.3577 32.38 32.9177 33.82 32.9177 35.6V36.35H22.2677ZM26.4077 30.89C25.3277 30.89 24.4477 31.27 23.7677 32.03C23.0877 32.77 22.6377 33.77 22.4177 35.03H29.8877C29.8677 33.99 29.5777 33.04 29.0177 32.18C28.4777 31.32 27.6077 30.89 26.4077 30.89ZM60.8852 43.1V44H53.0252V43.1H53.6552C54.1552 43.1 54.5452 43.02 54.8252 42.86C55.1252 42.7 55.2752 42.45 55.2752 42.11V34.07C55.2752 33.05 55.0452 32.29 54.5852 31.79C54.1252 31.27 53.4952 31.01 52.6952 31.01C51.7152 31.01 50.8652 31.41 50.1452 32.21C49.4452 32.99 49.0952 34.13 49.0952 35.63V42.08C49.0952 42.42 49.2352 42.68 49.5152 42.86C49.8152 43.02 50.2152 43.1 50.7152 43.1H50.9852V44H43.8452V43.1H44.1752C44.6752 43.1 45.0652 43.02 45.3452 42.86C45.6452 42.7 45.7952 42.45 45.7952 42.11V34.07C45.7952 33.05 45.5652 32.29 45.1052 31.79C44.6452 31.27 44.0152 31.01 43.2152 31.01C42.2352 31.01 41.3952 31.41 40.6952 32.21C39.9952 32.99 39.6452 34.13 39.6452 35.63V42.08C39.6452 42.42 39.7852 42.68 40.0652 42.86C40.3652 43.02 40.7652 43.1 41.2652 43.1H41.8352V44H33.9452V43.1H34.6052C35.0852 43.1 35.4652 43.02 35.7452 42.86C36.0452 42.7 36.1952 42.45 36.1952 42.11V32.54C36.1952 32.06 35.9652 31.82 35.5052 31.82C35.3252 31.82 35.0452 31.89 34.6652 32.03L34.4552 31.25L38.8052 29.75H39.6452V32.03C40.0652 31.33 40.6852 30.75 41.5052 30.29C42.3252 29.83 43.2552 29.6 44.2952 29.6C45.5952 29.6 46.6252 29.84 47.3852 30.32C48.1652 30.8 48.6752 31.48 48.9152 32.36C49.2552 31.58 49.8652 30.93 50.7452 30.41C51.6452 29.87 52.6552 29.6 53.7752 29.6C55.3952 29.6 56.6252 29.97 57.4652 30.71C58.3052 31.45 58.7252 32.45 58.7252 33.71V42.08C58.7252 42.42 58.8652 42.68 59.1452 42.86C59.4452 43.02 59.8352 43.1 60.3152 43.1H60.8852ZM61.6195 49.85H62.2495C62.7495 49.85 63.1395 49.77 63.4195 49.61C63.7195 49.45 63.8695 49.2 63.8695 48.86V32.54C63.8695 32.06 63.6295 31.82 63.1495 31.82C62.9895 31.82 62.7195 31.89 62.3395 32.03L62.0995 31.25L66.4795 29.75H67.3195V31.91C67.8795 31.09 68.5895 30.5 69.4495 30.14C70.3295 29.78 71.2395 29.6 72.1795 29.6C74.1395 29.6 75.6895 30.21 76.8295 31.43C77.9895 32.63 78.5695 34.35 78.5695 36.59C78.5695 39.31 77.9595 41.28 76.7395 42.5C75.5195 43.7 73.7395 44.3 71.3995 44.3C70.4995 44.3 69.6695 44.12 68.9095 43.76C68.1495 43.38 67.6195 42.92 67.3195 42.38V48.83C67.3195 49.17 67.4595 49.42 67.7395 49.58C68.0395 49.76 68.4295 49.85 68.9095 49.85H69.4795V50.75H61.6195V49.85ZM71.0995 42.98C73.7995 42.98 75.1495 40.9 75.1495 36.74C75.1495 34.8 74.8195 33.35 74.1595 32.39C73.4995 31.43 72.4595 30.95 71.0395 30.95C70.4995 30.95 69.9395 31.12 69.3595 31.46C68.7795 31.78 68.2895 32.24 67.8895 32.84C67.5095 33.44 67.3195 34.13 67.3195 34.91V39.14C67.3195 40.22 67.6495 41.13 68.3095 41.87C68.9895 42.61 69.9195 42.98 71.0995 42.98ZM79.748 43.1H80.378C80.878 43.1 81.268 43.02 81.548 42.86C81.848 42.7 81.998 42.45 81.998 42.11V25.28C81.998 24.8 81.758 24.56 81.278 24.56C81.118 24.56 80.848 24.63 80.468 24.77L80.228 23.99L84.608 22.49H85.448V42.08C85.448 42.42 85.588 42.68 85.868 42.86C86.168 43.02 86.558 43.1 87.038 43.1H87.608V44H79.748V43.1ZM92.3273 36.35C92.3073 36.49 92.2973 36.7 92.2973 36.98C92.2973 38.8 92.7273 40.27 93.5873 41.39C94.4473 42.51 95.5873 43.07 97.0073 43.07C98.3273 43.07 99.4073 42.74 100.247 42.08C101.087 41.4 101.637 40.36 101.897 38.96H102.887C102.727 40.54 102.107 41.83 101.027 42.83C99.9473 43.81 98.4473 44.3 96.5273 44.3C94.0673 44.3 92.1573 43.67 90.7973 42.41C89.4573 41.13 88.7873 39.31 88.7873 36.95C88.7873 34.67 89.4573 32.88 90.7973 31.58C92.1373 30.26 93.9873 29.6 96.3473 29.6C98.5273 29.6 100.177 30.16 101.297 31.28C102.417 32.38 102.977 33.82 102.977 35.6V36.35H92.3273ZM96.4673 30.89C95.3873 30.89 94.5073 31.27 93.8273 32.03C93.1473 32.77 92.6973 33.77 92.4773 35.03H99.9473C99.9273 33.99 99.6373 33.04 99.0773 32.18C98.5373 31.32 97.6673 30.89 96.4673 30.89Z" fill="#4A1600"/>
<path d="M118.773 49.4464C117.32 49.4464 116.009 49.103 114.842 48.4162C113.674 47.7295 112.747 46.8081 112.06 45.652C111.374 44.4845 111.03 43.1911 111.03 41.7718H115.219C115.219 42.4127 115.368 42.9965 115.666 43.523C115.975 44.0495 116.398 44.473 116.936 44.7935C117.474 45.1026 118.087 45.2571 118.773 45.2571C119.403 45.2571 119.987 45.1026 120.525 44.7935C121.074 44.473 121.515 44.0495 121.847 43.523C122.179 42.9965 122.345 42.4127 122.345 41.7718C122.345 40.9362 122.121 40.2437 121.675 39.6943C121.229 39.1334 120.605 38.7156 119.804 38.4409C119.014 38.1662 118.092 38.0289 117.039 38.0289V34.801C118.459 34.801 119.58 34.5321 120.405 33.9941C121.24 33.4561 121.658 32.6663 121.658 31.6247C121.658 31.0868 121.521 30.5946 121.246 30.1482C120.971 29.7018 120.605 29.347 120.147 29.0837C119.701 28.809 119.208 28.6716 118.67 28.6716C118.121 28.6716 117.589 28.809 117.074 29.0837C116.559 29.347 116.135 29.7018 115.803 30.1482C115.483 30.5946 115.322 31.0868 115.322 31.6247H111.133C111.133 30.6404 111.333 29.719 111.734 28.8605C112.135 27.9906 112.684 27.2294 113.382 26.577C114.092 25.9246 114.893 25.4152 115.786 25.0489C116.69 24.6712 117.635 24.4823 118.619 24.4823C119.912 24.4823 121.108 24.8028 122.207 25.4438C123.306 26.0848 124.188 26.9433 124.851 28.0192C125.515 29.0951 125.847 30.297 125.847 31.6247C125.847 32.5519 125.63 33.4618 125.195 34.3546C124.76 35.2474 124.142 35.877 123.34 36.2433C124.039 36.4951 124.622 36.9186 125.092 37.5138C125.561 38.0975 125.916 38.7671 126.156 39.5226C126.408 40.2666 126.534 41.0163 126.534 41.7718C126.534 43.1796 126.179 44.4673 125.469 45.6348C124.76 46.7909 123.816 47.718 122.637 48.4162C121.469 49.103 120.181 49.4464 118.773 49.4464ZM136.294 49.4464C134.76 49.4464 133.352 49.063 132.07 48.2961C130.788 47.5292 129.764 46.5047 128.997 45.2228C128.23 43.9408 127.846 42.5215 127.846 40.9648C127.846 40.1636 127.938 39.4196 128.121 38.7328C128.316 38.046 128.613 37.3535 129.014 36.6553L135.744 24.9631H140.603L136.088 32.7751C137.015 32.7064 137.908 32.7865 138.766 33.0154C139.624 33.2444 140.42 33.6049 141.152 34.0971C141.885 34.5893 142.526 35.1845 143.075 35.8827C143.625 36.5809 144.048 37.3593 144.346 38.2177C144.655 39.0762 144.81 39.9919 144.81 40.9648C144.81 42.1323 144.586 43.2254 144.14 44.2441C143.705 45.2628 143.098 46.1671 142.32 46.9569C141.542 47.7352 140.637 48.3476 139.607 48.794C138.577 49.2289 137.473 49.4464 136.294 49.4464ZM136.294 45.2571C137.129 45.2571 137.873 45.0568 138.526 44.6562C139.178 44.2441 139.687 43.7119 140.054 43.0594C140.431 42.407 140.62 41.7145 140.62 40.982C140.62 40.1922 140.431 39.4711 140.054 38.8186C139.676 38.1662 139.161 37.6454 138.508 37.2562C137.867 36.8671 137.141 36.6725 136.328 36.6725C135.492 36.6725 134.748 36.8785 134.096 37.2906C133.455 37.6912 132.951 38.2177 132.585 38.8702C132.219 39.5226 132.036 40.2265 132.036 40.982C132.036 41.7946 132.236 42.5215 132.637 43.1625C133.037 43.8034 133.558 44.3128 134.199 44.6905C134.851 45.0682 135.55 45.2571 136.294 45.2571ZM155.637 49.4464C154.241 49.4464 152.97 49.1259 151.826 48.4849C150.681 47.8325 149.691 46.934 148.856 45.7894C148.031 44.6447 147.396 43.3227 146.95 41.8233C146.503 40.3124 146.28 38.6985 146.28 36.9815C146.28 35.2646 146.503 33.6564 146.95 32.157C147.396 30.6461 148.031 29.3183 148.856 28.1737C149.691 27.0291 150.681 26.1363 151.826 25.4953C152.97 24.8429 154.241 24.5167 155.637 24.5167C157.034 24.5167 158.304 24.8429 159.449 25.4953C160.594 26.1363 161.572 27.0291 162.385 28.1737C163.209 29.3183 163.844 30.6461 164.291 32.157C164.749 33.6564 164.977 35.2646 164.977 36.9815C164.977 38.6985 164.749 40.3124 164.291 41.8233C163.844 43.3227 163.209 44.6447 162.385 45.7894C161.572 46.934 160.594 47.8325 159.449 48.4849C158.304 49.1259 157.034 49.4464 155.637 49.4464ZM155.637 45.2571C156.862 45.2571 157.875 44.8679 158.676 44.0896C159.478 43.3113 160.073 42.2926 160.462 41.0335C160.851 39.7744 161.046 38.4238 161.046 36.9815C161.046 35.4592 160.84 34.0742 160.428 32.8266C160.016 31.5675 159.409 30.566 158.608 29.822C157.806 29.078 156.816 28.706 155.637 28.706C154.71 28.706 153.903 28.9349 153.217 29.3927C152.541 29.8391 151.98 30.4515 151.534 31.2298C151.088 32.0082 150.756 32.8953 150.538 33.8911C150.321 34.8754 150.212 35.9056 150.212 36.9815C150.212 38.4123 150.407 39.763 150.796 41.0335C151.196 42.2926 151.797 43.3113 152.598 44.0896C153.411 44.8679 154.424 45.2571 155.637 45.2571Z" fill="#4A1600"/>
<path fill-rule="evenodd" clip-rule="evenodd" d="M169 28C171.209 28 173 26.2091 173 24C173 21.7909 171.209 20 169 20C166.791 20 165 21.7909 165 24C165 26.2091 166.791 28 169 28ZM169 26C170.105 26 171 25.1046 171 24C171 22.8954 170.105 22 169 22C167.895 22 167 22.8954 167 24C167 25.1046 167.895 26 169 26Z" fill="#4A1600"/>
<path fill-rule="evenodd" clip-rule="evenodd" d="M122.845 51C128.534 63.3932 141.052 72 155.581 72C175.463 72 191.581 55.8823 191.581 36C191.581 16.1177 175.463 0 155.581 0C140.283 0 127.213 9.54251 122 23H125.282C130.311 11.1993 142.017 2.92676 155.654 2.92676C173.88 2.92676 188.654 17.7014 188.654 35.9268C188.654 54.1522 173.88 68.9268 155.654 68.9268C142.86 68.9268 131.766 61.6452 126.29 51H122.845Z" fill="url(#paint0_linear_870_1061)"/>
<defs>
<linearGradient id="paint0_linear_870_1061" x1="140.645" y1="-1.6556e-06" x2="173.581" y2="68.1702" gradientUnits="userSpaceOnUse">
<stop stop-color="#FF6B00"/>
<stop offset="1" stop-color="#990C00"/>
</linearGradient>
</defs>
</svg>
